name p15_grf_mean_speed_1.0
datacolumns 13
datarows 46
range 0.0000000000 0.4500000000
endheader
time	grf_x_l_mean	grf_x_l_var	grf_y_l_mean	grf_y_l_var	grf_z_l_mean	grf_z_l_var	grf_x_r_mean	grf_x_r_var	grf_y_r_mean	grf_y_r_var	grf_z_r_mean	grf_z_r_var
0.0000000000	81.9093403606	1.0000000000	750.1811676079	1.0000000000	0.0000000000	0.0000000000	14.4854557637	1.0000000000	10.8964155334	1.0000000000	0.0000000000	0.0000000000
0.0100000000	88.2503830054	1.0000000000	743.8608746670	1.0000000000	0.0000000000	0.0000000000	25.0049202905	1.0000000000	41.2724161184	1.0000000000	0.0000000000	0.0000000000
0.0200000000	95.9450639300	1.0000000000	731.3781654727	1.0000000000	0.0000000000	0.0000000000	32.1237522296	1.0000000000	90.0788959113	1.0000000000	0.0000000000	0.0000000000
0.0300000000	104.3176173577	1.0000000000	711.1937852151	1.0000000000	0.0000000000	0.0000000000	27.4569031160	1.0000000000	154.2649174036	1.0000000000	0.0000000000	0.0000000000
0.0400000000	112.1890314341	1.0000000000	681.5420926694	1.0000000000	0.0000000000	0.0000000000	10.5641882022	1.0000000000	228.1023214330	1.0000000000	0.0000000000	0.0000000000
0.0500000000	119.6440053395	1.0000000000	641.0990143963	1.0000000000	0.0000000000	0.0000000000	-11.8202220601	1.0000000000	302.6981506923	1.0000000000	0.0000000000	0.0000000000
0.0600000000	124.7217975804	1.0000000000	587.8958795138	1.0000000000	0.0000000000	0.0000000000	-35.5241358881	1.0000000000	367.1013635538	1.0000000000	0.0000000000	0.0000000000
0.0700000000	124.8339044212	1.0000000000	520.6353297594	1.0000000000	0.0000000000	0.0000000000	-57.1732406460	1.0000000000	415.0930986532	1.0000000000	0.0000000000	0.0000000000
0.0800000000	119.1565702280	1.0000000000	441.3988948592	1.0000000000	0.0000000000	0.0000000000	-73.3451045111	1.0000000000	448.5253301999	1.0000000000	0.0000000000	0.0000000000
0.0900000000	105.7048747405	1.0000000000	354.9981088389	1.0000000000	0.0000000000	0.0000000000	-84.8913773784	1.0000000000	474.4732110226	1.0000000000	0.0000000000	0.0000000000
0.1000000000	84.5881150785	1.0000000000	267.9301072372	1.0000000000	0.0000000000	0.0000000000	-92.5810295855	1.0000000000	499.7806415182	1.0000000000	0.0000000000	0.0000000000
0.1100000000	59.8425693539	1.0000000000	188.7568940636	1.0000000000	0.0000000000	0.0000000000	-96.1684834418	1.0000000000	529.4010330454	1.0000000000	0.0000000000	0.0000000000
0.1200000000	35.2553965937	1.0000000000	124.7204328831	1.0000000000	0.0000000000	0.0000000000	-97.4116971780	1.0000000000	565.0134040255	1.0000000000	0.0000000000	0.0000000000
0.1300000000	16.0019982853	1.0000000000	77.7042798412	1.0000000000	0.0000000000	0.0000000000	-96.6448237507	1.0000000000	603.7598000822	1.0000000000	0.0000000000	0.0000000000
0.1400000000	4.1580962465	1.0000000000	45.6900716536	1.0000000000	0.0000000000	0.0000000000	-93.3748882936	1.0000000000	641.4498955550	1.0000000000	0.0000000000	0.0000000000
0.1500000000	-2.3528856424	1.0000000000	25.5267764253	1.0000000000	0.0000000000	0.0000000000	-89.2838893688	1.0000000000	675.4349305327	1.0000000000	0.0000000000	0.0000000000
0.1600000000	-4.3594525868	1.0000000000	13.2148863950	1.0000000000	0.0000000000	0.0000000000	-84.3593863028	1.0000000000	703.8413654734	1.0000000000	0.0000000000	0.0000000000
0.1700000000	-3.6192954110	1.0000000000	5.4606623629	1.0000000000	0.0000000000	0.0000000000	-78.5675914035	1.0000000000	725.0572419339	1.0000000000	0.0000000000	0.0000000000
0.1800000000	-2.3106752374	1.0000000000	0.9764568140	1.0000000000	0.0000000000	0.0000000000	-72.9247935638	1.0000000000	738.2447699782	1.0000000000	0.0000000000	0.0000000000
0.1900000000	0.0000000000	1.0000000000	0.0000000000	1.0000000000	0.0000000000	0.0000000000	-66.8878633464	1.0000000000	743.7285948786	1.0000000000	0.0000000000	0.0000000000
0.2000000000	0.0000000000	1.0000000000	0.0000000000	1.0000000000	0.0000000000	0.0000000000	-60.9122835405	1.0000000000	742.7133466173	1.0000000000	0.0000000000	0.0000000000
0.2100000000	0.0000000000	1.0000000000	0.0000000000	1.0000000000	0.0000000000	0.0000000000	-55.4368459733	1.0000000000	736.0926437124	1.0000000000	0.0000000000	0.0000000000
0.2200000000	0.0000000000	1.0000000000	0.0000000000	1.0000000000	0.0000000000	0.0000000000	-49.5999272933	1.0000000000	724.5470612398	1.0000000000	0.0000000000	0.0000000000
0.2300000000	0.0000000000	1.0000000000	0.0000000000	1.0000000000	0.0000000000	0.0000000000	-43.8493543743	1.0000000000	709.6366889303	1.0000000000	0.0000000000	0.0000000000
0.2400000000	0.0000000000	1.0000000000	0.0000000000	1.0000000000	0.0000000000	0.0000000000	-38.5011822730	1.0000000000	693.4347845406	1.0000000000	0.0000000000	0.0000000000
0.2500000000	0.0000000000	1.0000000000	0.0000000000	1.0000000000	0.0000000000	0.0000000000	-33.0025928313	1.0000000000	677.4047679662	1.0000000000	0.0000000000	0.0000000000
0.2600000000	0.0000000000	1.0000000000	0.0000000000	1.0000000000	0.0000000000	0.0000000000	-27.8093488862	1.0000000000	662.4392209149	1.0000000000	0.0000000000	0.0000000000
0.2700000000	0.0000000000	1.0000000000	0.0000000000	1.0000000000	0.0000000000	0.0000000000	-22.8173937598	1.0000000000	649.4086407789	1.0000000000	0.0000000000	0.0000000000
0.2800000000	0.0000000000	1.0000000000	0.0000000000	1.0000000000	0.0000000000	0.0000000000	-17.9898902502	1.0000000000	639.2085582562	1.0000000000	0.0000000000	0.0000000000
0.2900000000	0.0000000000	1.0000000000	0.0000000000	1.0000000000	0.0000000000	0.0000000000	-13.8280789717	1.0000000000	631.8463134530	1.0000000000	0.0000000000	0.0000000000
0.3000000000	0.0000000000	1.0000000000	0.0000000000	1.0000000000	0.0000000000	0.0000000000	-9.8303268429	1.0000000000	626.6444541302	1.0000000000	0.0000000000	0.0000000000
0.3100000000	0.0000000000	1.0000000000	0.0000000000	1.0000000000	0.0000000000	0.0000000000	-6.0325947555	1.0000000000	623.6724576520	1.0000000000	0.0000000000	0.0000000000
0.3200000000	0.0000000000	1.0000000000	0.0000000000	1.0000000000	0.0000000000	0.0000000000	-2.6702115377	1.0000000000	623.4601516289	1.0000000000	0.0000000000	0.0000000000
0.3300000000	0.0000000000	1.0000000000	0.0000000000	1.0000000000	0.0000000000	0.0000000000	0.8295745529	1.0000000000	625.7803053496	1.0000000000	0.0000000000	0.0000000000
0.3400000000	0.0000000000	1.0000000000	0.0000000000	1.0000000000	0.0000000000	0.0000000000	4.2995801080	1.0000000000	629.9417035507	1.0000000000	0.0000000000	0.0000000000
0.3500000000	0.0000000000	1.0000000000	0.0000000000	1.0000000000	0.0000000000	0.0000000000	7.6716719450	1.0000000000	635.3852287225	1.0000000000	0.0000000000	0.0000000000
0.3600000000	0.0000000000	1.0000000000	0.0000000000	1.0000000000	0.0000000000	0.0000000000	11.3373334257	1.0000000000	641.7830767254	1.0000000000	0.0000000000	0.0000000000
0.3700000000	0.0000000000	1.0000000000	0.0000000000	1.0000000000	0.0000000000	0.0000000000	14.9844867992	1.0000000000	648.6634802770	1.0000000000	0.0000000000	0.0000000000
0.3800000000	0.0000000000	1.0000000000	0.0000000000	1.0000000000	0.0000000000	0.0000000000	18.9312344223	1.0000000000	655.1419392788	1.0000000000	0.0000000000	0.0000000000
0.3900000000	0.0000000000	1.0000000000	0.0000000000	1.0000000000	0.0000000000	0.0000000000	23.5391603060	1.0000000000	661.0811213600	1.0000000000	0.0000000000	0.0000000000
0.4000000000	0.0000000000	1.0000000000	0.0000000000	1.0000000000	0.0000000000	0.0000000000	28.3875795513	1.0000000000	667.6153855457	1.0000000000	0.0000000000	0.0000000000
0.4100000000	0.0000000000	1.0000000000	0.0000000000	1.0000000000	0.0000000000	0.0000000000	33.6095853862	1.0000000000	675.5457521482	1.0000000000	0.0000000000	0.0000000000
0.4200000000	0.4211779093	1.0000000000	0.0044515004	1.0000000000	0.0000000000	0.0000000000	38.9581289364	1.0000000000	684.7695777024	1.0000000000	0.0000000000	0.0000000000
0.4300000000	0.0000000000	1.0000000000	0.0000000000	1.0000000000	0.0000000000	0.0000000000	43.6881105599	1.0000000000	695.3124482470	1.0000000000	0.0000000000	0.0000000000
0.4400000000	0.0000000000	1.0000000000	0.0000000000	1.0000000000	0.0000000000	0.0000000000	47.7768297855	1.0000000000	707.2814595429	1.0000000000	0.0000000000	0.0000000000
0.4500000000	0.0000000000	1.0000000000	0.0000000000	1.0000000000	0.0000000000	0.0000000000	51.1499779307	1.0000000000	720.1017391438	1.0000000000	0.0000000000	0.0000000000
